<?xml version="1.0" encoding="utf-8"?>
<!-- Generator: Adobe Illustrator 26.2.1, SVG Export Plug-In . SVG Version: 6.00 Build 0)  -->
<svg version="1.1" id="Layer_1" xmlns="http://www.w3.org/2000/svg" xmlns:xlink="http://www.w3.org/1999/xlink" x="0px" y="0px"
	 viewBox="0 0 200 189" style="enable-background:new 0 0 200 189;" xml:space="preserve">
<style type="text/css">
	.st0{clip-path:url(#SVGID_00000096037493100056397450000018200112286747099301_);}
	.st1{fill:#757575;}
</style>
<g id="Group_165" transform="translate(95)">
	<g>
		<defs>
			<rect id="SVGID_1_" x="-23" y="59.5" width="70" height="70"/>
		</defs>
		<clipPath id="SVGID_00000116207286963654283300000012895681566262966674_">
			<use xlink:href="#SVGID_1_"  style="overflow:visible;"/>
		</clipPath>
		<g id="Group_47" style="clip-path:url(#SVGID_00000116207286963654283300000012895681566262966674_);">
			<path id="Path_1097" class="st1" d="M47,92.3c0,18.1-15.7,32.8-35,32.8c-3.5,0-6.9-0.5-10.3-1.4c-5.8,2.9-11.9,4.8-18.3,5.8
				c-0.7,0.1-1.2-0.4-1.3-1.1c0-0.2,0-0.4,0.1-0.6c1.7-4.5,2.9-9.1,3.4-13.9c-5.5-5.8-8.6-13.5-8.6-21.6c0-18.1,15.7-32.8,35-32.8
				S47,74.2,47,92.3 M-1.1,92.3c0-1.2-0.5-2.4-1.3-3.3c-1.5-1.7-4.2-1.8-5.9-0.3c-0.1,0.1-0.2,0.2-0.3,0.3c-1.7,1.9-1.7,4.7,0,6.6
				c1.5,1.7,4.2,1.8,5.9,0.3c0.1-0.1,0.2-0.2,0.3-0.3C-1.6,94.7-1.1,93.5-1.1,92.3 M16.4,92.3c0-1.2-0.5-2.4-1.3-3.3
				c-1.5-1.7-4.2-1.8-5.9-0.3C9.1,88.8,9,88.9,8.9,89c-1.7,1.9-1.7,4.7,0,6.6c1.5,1.7,4.2,1.8,5.9,0.3c0.1-0.1,0.2-0.2,0.3-0.3
				C15.9,94.7,16.4,93.5,16.4,92.3 M29.5,97c1.2,0,2.3-0.5,3.1-1.4c1.7-1.9,1.7-4.7,0-6.6c-1.5-1.7-4.2-1.8-5.9-0.3
				c-0.1,0.1-0.2,0.2-0.3,0.3c-1.7,1.9-1.7,4.7,0,6.6C27.2,96.5,28.3,97,29.5,97"/>
		</g>
	</g>
</g>
</svg>
