<?xml version="1.0" encoding="utf-8"?>
<!-- Generator: Adobe Illustrator 26.2.1, SVG Export Plug-In . SVG Version: 6.00 Build 0)  -->
<svg version="1.1" id="Layer_1" xmlns="http://www.w3.org/2000/svg" xmlns:xlink="http://www.w3.org/1999/xlink" x="0px" y="0px"
	 viewBox="0 0 200 189" style="enable-background:new 0 0 200 189;" xml:space="preserve">
<style type="text/css">
	.st0{fill:#757575;}
</style>
<path id="fluent_document-text-24-filled" class="st0" d="M100,86.9v-21H73.8c-2.2,0-4.4,0.7-6.2,2c-1.6,1.2-2.5,3-2.6,5v56
	c0,2,1,3.8,2.6,5c1.8,1.4,4,2.1,6.2,2h52.5c2.2,0,4.4-0.7,6.2-2c1.6-1.2,2.5-3,2.6-5v-35h-26.2c-2.2,0-4.4-0.7-6.2-2
	C101,90.7,100,88.8,100,86.9z M83.6,99.1h32.8c0.8,0,1.7,0.3,2.3,0.8c1,0.7,1.3,2.1,0.5,3.2c-0.1,0.2-0.3,0.4-0.5,0.5
	c-0.7,0.5-1.5,0.8-2.3,0.8H83.6c-0.8,0-1.7-0.3-2.3-0.8c-1-0.7-1.3-2.1-0.5-3.2c0.1-0.2,0.3-0.4,0.5-0.5
	C81.9,99.4,82.8,99.1,83.6,99.1z M83.6,108.8h32.8c0.8,0,1.7,0.3,2.3,0.8c1,0.7,1.3,2.1,0.5,3.2c-0.1,0.2-0.3,0.4-0.5,0.5
	c-0.7,0.5-1.5,0.8-2.3,0.8H83.6c-0.8,0-1.7-0.3-2.3-0.8c-1-0.7-1.3-2.1-0.5-3.2c0.1-0.2,0.3-0.4,0.5-0.5
	C81.9,109,82.8,108.7,83.6,108.8z M83.6,118.4h32.8c0.8,0,1.7,0.3,2.3,0.8c1,0.7,1.3,2.1,0.5,3.2c-0.1,0.2-0.3,0.4-0.5,0.5
	c-0.7,0.5-1.5,0.8-2.3,0.8H83.6c-0.8,0-1.7-0.3-2.3-0.8c-1-0.7-1.3-2.1-0.5-3.2c0.1-0.2,0.3-0.4,0.5-0.5
	C81.9,118.6,82.8,118.4,83.6,118.4z M106.6,86.9V67.6l26.2,21h-24.1c-0.6,0-1.1-0.2-1.5-0.5C106.8,87.8,106.6,87.4,106.6,86.9z"/>
</svg>
