<?xml version="1.0" encoding="utf-8"?>
<!-- Generator: Adobe Illustrator 26.2.1, SVG Export Plug-In . SVG Version: 6.00 Build 0)  -->
<svg version="1.1" id="Layer_1" xmlns="http://www.w3.org/2000/svg" xmlns:xlink="http://www.w3.org/1999/xlink" x="0px" y="0px"
	 viewBox="0 0 200 189" style="enable-background:new 0 0 200 189;" xml:space="preserve">
<style type="text/css">
	.st0{clip-path:url(#SVGID_00000131354663274759600110000010137011933420870832_);}
	.st1{fill:#757575;}
</style>
<g id="Group_164">
	<g>
		<defs>
			<rect id="SVGID_1_" x="60.6" y="47.9" width="70" height="70"/>
		</defs>
		<clipPath id="SVGID_00000029763776485385566930000002461179743662715273_">
			<use xlink:href="#SVGID_1_"  style="overflow:visible;"/>
		</clipPath>
		<g id="Group_45" style="clip-path:url(#SVGID_00000029763776485385566930000002461179743662715273_);">
			<path id="Path_1096" class="st1" d="M95.1,47.9H96c0.7,0.3,1.4,0.7,1.8,1.4c1.7,1.8,3.3,3.5,5,5.3c8.8,9.3,17.5,18.6,26.3,27.8
				c1.4,1.5,1.8,3.7,1,5.6c-0.7,1.9-2.5,3.2-4.5,3.2c-1,0-2,0-3,0h-0.4v0.6c0,7.8,0,15.5,0,23.3c0.1,1.4-0.9,2.6-2.3,2.8
				c-0.1,0-0.2,0-0.3,0H99.3V99.6h-8.7v18.3H71.5c-1.4,0.1-2.6-1-2.7-2.4c0-0.1,0-0.3,0-0.4V91.2c-1.1,0-2.2,0-3.3,0
				c-0.3,0-0.6,0-0.8-0.1c-1.9-0.3-3.4-1.7-3.9-3.6c-0.6-1.9-0.1-3.9,1.3-5.3c10.4-11,20.7-22,31.1-32.9
				C93.7,48.7,94.4,48.2,95.1,47.9"/>
		</g>
	</g>
</g>
</svg>
