<?xml version="1.0" encoding="utf-8"?>
<!-- Generator: Adobe Illustrator 26.2.1, SVG Export Plug-In . SVG Version: 6.00 Build 0)  -->
<svg version="1.1" id="Layer_1" xmlns="http://www.w3.org/2000/svg" xmlns:xlink="http://www.w3.org/1999/xlink" x="0px" y="0px"
	 viewBox="0 0 200 189" style="enable-background:new 0 0 200 189;" xml:space="preserve">
<style type="text/css">
	.st0{clip-path:url(#SVGID_00000053510361085083646100000010641074068562441097_);}
	.st1{fill:#757575;}
</style>
<g>
	<defs>
		<rect id="SVGID_1_" x="65" y="52.1" width="70" height="70"/>
	</defs>
	<clipPath id="SVGID_00000114074637589125428570000000201487547008080030_">
		<use xlink:href="#SVGID_1_"  style="overflow:visible;"/>
	</clipPath>
	<g id="Group_43" style="clip-path:url(#SVGID_00000114074637589125428570000000201487547008080030_);">
		<path id="Path_1094" class="st1" d="M65,90.6v-7c0.1-0.3,0.2-0.6,0.3-1C67.1,68.1,77.8,56.3,92.1,53c1.5-0.3,2.9-0.6,4.4-0.9h7
			c0.3,0.1,0.6,0.2,1,0.3c19.2,2.5,32.7,20,30.3,39.2c-2.5,19.2-20,32.7-39.2,30.3C81.1,120,69.3,109.3,66,95.2
			C65.6,93.7,65.3,92.1,65,90.6 M79,108.8c0.1-0.5,0.3-0.9,0.3-1.3c1.2-7.1,7-12.5,14.2-13.2c4.3-0.3,8.6-0.3,12.9,0
			c3.8,0.3,7.3,2,9.9,4.7c2.6,2.7,4.2,6.1,4.7,9.8c11.6-11,12.5-29.1,2.1-41.3c-10.8-12.8-29.9-14.4-42.7-3.6s-14.4,29.9-3.6,42.7
			C77.5,107.3,78.2,108,79,108.8"/>
		<path id="Path_1095" class="st1" d="M111.6,77.8c0,6.4-5.3,11.6-11.7,11.6c-6.4,0-11.6-5.3-11.6-11.7c0-6.4,5.2-11.6,11.7-11.6
			C106.4,66.1,111.6,71.3,111.6,77.8C111.6,77.8,111.6,77.8,111.6,77.8"/>
	</g>
</g>
</svg>
